<svg xmlns="http://www.w3.org/2000/svg" viewBox="0 0 64 64" role="img" aria-labelledby="title">
  <title id="title">USDT TRC20</title>
  <circle cx="32" cy="32" r="30" fill="#26a17b"/>
  <path fill="#fff" d="M35.7 28.1v-5.5h12.6v-8.4H15.6v8.4h12.6v5.5c-10.2.5-17.9 2.5-17.9 5s7.7 4.5 17.9 5v12.7h7.5V38.1c10.2-.5 17.9-2.5 17.9-5s-7.7-4.5-17.9-5Zm0 7.4v-.1c-.3 0-2 .1-3.7.1-1.4 0-3.4-.1-3.8-.1v.1c-7.8-.4-13.6-1.8-13.6-3.4 0-1.4 5.8-2.9 13.6-3.3v5.4c.4 0 2.4.2 3.9.2 1.8 0 3.3-.1 3.6-.2v-5.4c7.8.4 13.6 1.9 13.6 3.3 0 1.6-5.8 3-13.6 3.4Z"/>
</svg>

